#Comment line ignore any data following # character 
#Hierarchical Translation and Rotation (.htr) file 
[Header]	
#Header keywords are followed by a single value 
FileType HTR		#Single word string
DataType HTRS		#Translation followed by rotation and scale data
FileVersion 1		#integer
NumSegments 64		#integer
NumFrames 3		#integer
DataFrameRate 30		#integer, data frame rate in this file
EulerRotationOrder ZYX
CalibrationUnits mm
RotationUnits Degrees
GlobalAxisofGravity Y
BoneLengthAxis Y
ScaleFactor 1.00
[SegmentNames&Hierarchy]
#CHILD	PARENT
Pinger_Root GLOBAL
Pelvis Pinger_Root
L_Hip Pelvis
R_Hip Pelvis
Rear_Leg01 Pelvis
Spine1 Pelvis
L_Leg01 L_Hip
L_Leg02 L_Leg01
L_Leg03 L_Leg02
L_Foot L_Leg03
L_Toe1_01 L_Foot
L_Toe2_01 L_Foot
L_Toe3_01 L_Foot
planeAlignerLeft L_Foot
L_Toe1_02 L_Toe1_01
L_Toe1_03 L_Toe1_02
L_Toe2_02 L_Toe2_01
L_Toe2_03 L_Toe2_02
L_Toe3_02 L_Toe3_01
L_Toe3_03 L_Toe3_02
planeLockWeightLeft planeAlignerLeft
R_Leg01 R_Hip
R_Leg02 R_Leg01
R_Leg03 R_Leg02
R_Foot R_Leg03
planeAlignerRight R_Foot
R_Toe1_01 R_Foot
R_Toe2_01 R_Foot
R_Toe3_01 R_Foot
planeLockWeightRight planeAlignerRight
R_Toe1_02 R_Toe1_01
R_Toe1_03 R_Toe1_02
R_Toe2_02 R_Toe2_01
R_Toe2_03 R_Toe2_02
R_Toe3_02 R_Toe3_01
R_Toe3_03 R_Toe3_02
Rear_Leg02 Rear_Leg01
Rear_Leg03 Rear_Leg02
Rear_Leg04 Rear_Leg03
Rear_Foot Rear_Leg04
planeAlignerCenter Rear_Foot
Rear_Toe1_01 Rear_Foot
Rear_Toe2_01 Rear_Foot
Rear_Toe3_01 Rear_Foot
planeLockWeightCenter planeAlignerCenter
Rear_Toe1_02 Rear_Toe1_01
Rear_Toe1_03 Rear_Toe1_02
Rear_Toe2_02 Rear_Toe2_01
Rear_Toe2_03 Rear_Toe2_02
Rear_Toe3_02 Rear_Toe3_01
Rear_Toe3_03 Rear_Toe3_02
Back_Bone Spine1
Head Spine1
Motor_Bone Back_Bone
Ping_Mechanism Back_Bone
BN_LookIK Head
bottomMouth Head
L_Mouth01 Head
L_mouthFront Head
mouthGun Head
R_Mouth01 Head
R_mouthFront Head
TopMouth Head
weapon_bone Head
[BasePosition]
#SegmentName Tx, Ty, Tz, Rx, Ry, Rz, BoneLength
Pinger_Root 0.000000 0.000000 0.000000 -90.000000 0.000000 0.000000 10.000000 
Pelvis 0.000000 0.000000 0.000000 0.000000 0.000000 0.000000 10.000000 
L_Hip 0.000000 0.000000 0.000000 0.000000 0.000000 0.000000 10.000000 
R_Hip 0.000000 0.000000 0.000000 0.000000 0.000000 0.000000 10.000000 
Rear_Leg01 0.000000 0.000000 0.000000 0.000000 0.000000 0.000000 10.000000 
Spine1 0.000000 0.000000 0.000000 0.000000 0.000000 0.000000 10.000000 
L_Leg01 0.000000 0.000000 0.000000 0.000000 0.000000 0.000000 10.000000 
L_Leg02 0.000000 0.000000 0.000000 0.000000 0.000000 0.000000 10.000000 
L_Leg03 0.000000 0.000000 0.000000 0.000000 0.000000 0.000000 10.000000 
L_Foot 0.000000 0.000000 0.000000 0.000000 0.000000 0.000000 10.000000 
L_Toe1_01 0.000000 0.000000 0.000000 0.000000 0.000000 0.000000 10.000000 
L_Toe2_01 0.000000 0.000000 0.000000 0.000000 0.000000 0.000000 10.000000 
L_Toe3_01 0.000000 0.000000 0.000000 0.000000 0.000000 0.000000 10.000000 
planeAlignerLeft 0.000000 0.000000 0.000000 0.000000 0.000000 0.000000 10.000000 
L_Toe1_02 0.000000 0.000000 0.000000 0.000000 0.000000 0.000000 10.000000 
L_Toe1_03 0.000000 0.000000 0.000000 0.000000 0.000000 0.000000 10.000000 
L_Toe2_02 0.000000 0.000000 0.000000 0.000000 0.000000 0.000000 10.000000 
L_Toe2_03 0.000000 0.000000 0.000000 0.000000 0.000000 0.000000 10.000000 
L_Toe3_02 0.000000 0.000000 0.000000 0.000000 0.000000 0.000000 10.000000 
L_Toe3_03 0.000000 0.000000 0.000000 0.000000 0.000000 0.000000 10.000000 
planeLockWeightLeft 0.000000 0.000000 0.000000 0.000000 0.000000 0.000000 10.000000 
R_Leg01 0.000000 0.000000 0.000000 0.000000 0.000000 0.000000 10.000000 
R_Leg02 0.000000 0.000000 0.000000 0.000000 0.000000 0.000000 10.000000 
R_Leg03 0.000000 0.000000 0.000000 0.000000 0.000000 0.000000 10.000000 
R_Foot 0.000000 0.000000 0.000000 0.000000 0.000000 0.000000 10.000000 
planeAlignerRight 0.000000 0.000000 0.000000 0.000000 0.000000 0.000000 10.000000 
R_Toe1_01 0.000000 0.000000 0.000000 0.000000 0.000000 0.000000 10.000000 
R_Toe2_01 0.000000 0.000000 0.000000 0.000000 0.000000 0.000000 10.000000 
R_Toe3_01 0.000000 0.000000 0.000000 0.000000 0.000000 0.000000 10.000000 
planeLockWeightRight 0.000000 0.000000 0.000000 0.000000 0.000000 0.000000 10.000000 
R_Toe1_02 0.000000 0.000000 0.000000 0.000000 0.000000 0.000000 10.000000 
R_Toe1_03 0.000000 0.000000 0.000000 0.000000 0.000000 0.000000 10.000000 
R_Toe2_02 0.000000 0.000000 0.000000 0.000000 0.000000 0.000000 10.000000 
R_Toe2_03 0.000000 0.000000 0.000000 0.000000 0.000000 0.000000 10.000000 
R_Toe3_02 0.000000 0.000000 0.000000 0.000000 0.000000 0.000000 10.000000 
R_Toe3_03 0.000000 0.000000 0.000000 0.000000 0.000000 0.000000 10.000000 
Rear_Leg02 0.000000 0.000000 0.000000 0.000000 0.000000 0.000000 10.000000 
Rear_Leg03 0.000000 0.000000 0.000000 0.000000 0.000000 0.000000 10.000000 
Rear_Leg04 0.000000 0.000000 0.000000 0.000000 0.000000 0.000000 10.000000 
Rear_Foot 0.000000 0.000000 0.000000 0.000000 0.000000 0.000000 10.000000 
planeAlignerCenter 0.000000 0.000000 0.000000 0.000000 0.000000 0.000000 10.000000 
Rear_Toe1_01 0.000000 0.000000 0.000000 0.000000 0.000000 0.000000 10.000000 
Rear_Toe2_01 0.000000 0.000000 0.000000 0.000000 0.000000 0.000000 10.000000 
Rear_Toe3_01 0.000000 0.000000 0.000000 0.000000 0.000000 0.000000 10.000000 
planeLockWeightCenter 0.000000 0.000000 0.000000 0.000000 0.000000 0.000000 10.000000 
Rear_Toe1_02 0.000000 0.000000 0.000000 0.000000 0.000000 0.000000 10.000000 
Rear_Toe1_03 0.000000 0.000000 0.000000 0.000000 0.000000 0.000000 10.000000 
Rear_Toe2_02 0.000000 0.000000 0.000000 0.000000 0.000000 0.000000 10.000000 
Rear_Toe2_03 0.000000 0.000000 0.000000 0.000000 0.000000 0.000000 10.000000 
Rear_Toe3_02 0.000000 0.000000 0.000000 0.000000 0.000000 0.000000 10.000000 
Rear_Toe3_03 0.000000 0.000000 0.000000 0.000000 0.000000 0.000000 10.000000 
Back_Bone 0.000000 0.000000 0.000000 0.000000 0.000000 0.000000 10.000000 
Head 0.000000 0.000000 0.000000 0.000000 0.000000 0.000000 10.000000 
Motor_Bone 0.000000 0.000000 0.000000 0.000000 0.000000 0.000000 10.000000 
Ping_Mechanism 0.000000 0.000000 0.000000 0.000000 0.000000 0.000000 10.000000 
BN_LookIK 0.000000 0.000000 0.000000 0.000000 0.000000 0.000000 10.000000 
bottomMouth 0.000000 0.000000 0.000000 0.000000 0.000000 0.000000 10.000000 
L_Mouth01 0.000000 0.000000 0.000000 0.000000 0.000000 0.000000 10.000000 
L_mouthFront 0.000000 0.000000 0.000000 0.000000 0.000000 0.000000 10.000000 
mouthGun 0.000000 0.000000 0.000000 0.000000 0.000000 0.000000 10.000000 
R_Mouth01 0.000000 0.000000 0.000000 0.000000 0.000000 0.000000 10.000000 
R_mouthFront 0.000000 0.000000 0.000000 0.000000 0.000000 0.000000 10.000000 
TopMouth 0.000000 0.000000 0.000000 0.000000 0.000000 0.000000 10.000000 
weapon_bone 0.000000 0.000000 0.000000 0.000000 0.000000 0.000000 10.000000 
#Beginning of Data. Separated by tabs
#Fr	Tx	Ty	Tz	Rx	Ry	Rz	SF
[Pinger_Root]
36 0.000000 0.000000 0.000000 -0.000075 -0.000000 -0.000020 0.000000
37 0.000000 0.000000 0.000000 -0.000075 -0.000000 -0.000020 0.000000
38 0.000000 0.000000 0.000000 -0.000075 -0.000000 -0.000020 0.000000
[Pelvis]
36 67.287514 915.769714 4442.731934 -100.363472 -85.972015 92.748032 4536.631836
37 72.227806 916.536743 4428.441895 -100.363472 -85.972015 92.748032 4522.870117
38 72.227844 916.536743 4432.230957 -100.363472 -85.972015 92.748032 4526.580078
[L_Hip]
36 5.766392 125.831482 872.656799 160.158691 -45.484905 122.312202 881.701050
37 5.766392 125.831482 872.656799 160.158691 -45.484913 122.312202 881.701050
38 5.766392 125.831482 872.656799 160.158691 -45.484905 122.312202 881.701050
[R_Hip]
36 5.765438 125.836372 -872.654907 38.087841 49.812687 125.703735 881.699829
37 5.765438 125.836372 -872.654907 38.087841 49.812687 125.703735 881.699829
38 5.765438 125.836372 -872.654907 38.087841 49.812687 125.703735 881.699829
[Rear_Leg01]
36 -192.298416 -925.602966 -0.001907 169.692474 2.012272 -159.764725 945.367432
37 -192.298416 -925.602966 -0.001907 169.681046 1.961186 -159.631607 945.367432
38 -192.298416 -925.602966 -0.001907 169.680527 1.958474 -159.661636 945.367432
[Spine1]
36 290.604584 5.007505 0.000477 7.265744 -0.619986 19.266817 290.647736
37 290.604584 5.007505 0.000477 7.265744 -0.619986 19.266817 290.647736
38 290.604584 5.007505 0.000477 7.265744 -0.619986 19.266817 290.647736
[L_Leg01]
36 761.932007 -0.002384 -0.069261 22.834349 -15.660894 -9.468127 761.932068
37 761.932007 -0.002384 -0.069261 22.785696 -15.727429 -8.890978 761.932068
38 761.932007 -0.002384 -0.069261 22.817181 -15.695028 -9.052055 761.932068
[L_Leg02]
36 1441.140503 -0.000954 -0.000715 2.544044 -0.183664 -128.463974 1441.140503
37 1441.140503 -0.000954 -0.000715 2.628586 -0.186627 -129.248825 1441.140503
38 1441.140503 -0.000954 -0.000715 2.603748 -0.185718 -129.018967 1441.140503
[L_Leg03]
36 1686.963989 -0.000715 -0.000954 -0.029446 0.013847 118.052322 1686.963989
37 1686.963989 -0.000715 -0.000954 -0.029941 0.014727 118.167793 1686.963989
38 1686.963989 -0.000715 -0.000954 -0.029945 0.014719 118.138969 1686.963989
[L_Foot]
36 3041.570068 -30.715107 11.297464 2.037625 13.107507 55.398041 3041.746094
37 3041.570068 -30.715107 11.297464 1.946201 13.076180 55.519146 3041.746094
38 3041.570068 -30.715107 11.297464 1.950223 13.083426 55.475243 3041.746094
[L_Toe1_01]
36 -188.216690 -224.732346 -21.137953 93.718658 -6.864295 -171.968719 293.899567
37 -188.216690 -224.732346 -21.137953 93.718857 -6.863399 -171.969574 293.899567
38 -188.216690 -224.732346 -21.137953 93.719086 -6.862507 -171.970444 293.899567
[L_Toe2_01]
36 200.746536 -219.926590 148.838394 -90.023987 -26.311703 -52.677628 332.896027
37 200.746536 -219.926590 148.838394 -90.023987 -26.311703 -52.677628 332.896027
38 200.746536 -219.926590 148.838394 -90.023987 -26.311703 -52.677628 332.896027
[L_Toe3_01]
36 188.832520 -219.859131 -191.078659 -99.788055 13.839005 -67.673027 347.140900
37 188.832520 -219.859131 -191.078659 -99.788055 13.839008 -67.673027 347.140900
38 188.832520 -219.859131 -191.078659 -99.788055 13.839008 -67.673027 347.140900
[planeAlignerLeft]
36 0.812531 -811.448792 -0.314951 0.000000 -90.000000 -90.001900 811.449280
37 0.812531 -811.448792 -0.314951 0.000000 -90.000000 -90.001900 811.449280
38 0.812531 -811.448792 -0.314951 0.000000 -90.000000 -90.001900 811.449280
[L_Toe1_02]
36 413.761139 0.000477 0.000000 0.001384 -26.012932 0.001384 413.761139
37 413.761139 0.000477 0.000000 0.001384 -26.012932 0.001384 413.761139
38 413.761139 0.000477 0.000000 0.001384 -26.012932 0.001384 413.761139
[L_Toe1_03]
36 464.317322 0.000358 -0.000089 0.003733 53.355412 0.003733 464.317322
37 464.317322 0.000358 -0.000089 0.003733 53.354469 0.003733 464.317322
38 464.317322 0.000358 -0.000089 0.003733 53.353565 0.003733 464.317322
[L_Toe2_02]
36 342.235809 -0.000477 0.000238 0.001188 -72.402016 0.001188 342.235809
37 342.235809 -0.000477 0.000238 0.001188 -72.402016 0.001188 342.235809
38 342.235809 -0.000477 0.000238 0.001188 -72.402016 0.001188 342.235809
[L_Toe2_03]
36 420.210846 -0.000715 0.000000 0.029090 85.375511 0.029090 420.210846
37 420.210846 -0.000715 0.000000 0.029090 85.375511 0.029090 420.210846
38 420.210846 -0.000715 0.000000 0.029090 85.375511 0.029090 420.210846
[L_Toe3_02]
36 329.270111 0.000954 0.000000 0.001178 -80.495911 0.001178 329.270111
37 329.270111 0.000954 0.000000 0.001178 -80.488075 0.001178 329.270111
38 329.270111 0.000954 0.000000 0.001178 -80.480331 0.001178 329.270111
[L_Toe3_03]
36 439.137451 -0.001907 0.000954 -179.995956 78.616905 -179.992447 439.137451
37 439.137451 -0.001907 0.000954 -179.995956 78.611320 -179.992447 439.137451
38 439.137451 -0.001907 0.000954 -179.995956 78.605698 -179.992447 439.137451
[planeLockWeightLeft]
36 -0.000954 0.000238 -0.000305 -0.011826 -0.004376 0.005620 0.001029
37 -0.000954 0.000238 -0.000305 -0.011826 -0.004376 0.005620 0.001029
38 -0.000954 0.000238 -0.000305 -0.011826 -0.004376 0.005620 0.001029
[R_Leg01]
36 761.455627 -0.001907 -0.000358 120.085777 -7.430805 36.101414 761.455688
37 761.455627 -0.001907 -0.000358 120.156364 -8.211037 35.582661 761.455688
38 761.455627 -0.001907 -0.000358 120.155914 -8.176376 35.633469 761.455688
[R_Leg02]
36 1441.140625 0.000000 -0.000238 -1.283868 -0.182038 -117.385353 1441.140625
37 1441.140625 0.000000 -0.000238 -1.345456 -0.203461 -119.096138 1441.140625
38 1441.140625 0.000000 -0.000238 -1.339029 -0.199425 -118.901085 1441.140625
[R_Leg03]
36 1686.963989 0.000954 0.001431 0.075804 -0.043510 131.293854 1686.963989
37 1686.963989 0.000954 0.001431 0.080228 -0.041627 131.516342 1686.963989
38 1686.963989 0.000954 0.001431 0.075761 -0.043586 131.407837 1686.963989
[R_Foot]
36 3041.560059 -30.531288 -11.204481 -0.498799 -24.698915 54.808418 3041.734131
37 3041.560059 -30.531288 -11.204481 -0.517250 -24.682379 55.369843 3041.734131
38 3041.560059 -30.531288 -11.204481 -0.534461 -24.682068 55.345036 3041.734131
[planeAlignerRight]
36 -0.635147 -812.270569 -0.364304 0.000000 -89.960434 -90.005180 812.270874
37 -0.635147 -812.270569 -0.364304 0.000000 -89.960434 -90.005180 812.270874
38 -0.635147 -812.270569 -0.364304 0.000000 -89.960434 -90.005180 812.270874
[R_Toe1_01]
36 -188.383347 -224.864899 21.052242 76.763535 -0.414595 -172.728699 294.101532
37 -188.383347 -224.864899 21.052242 76.763535 -0.414595 -172.728699 294.101532
38 -188.383347 -224.864899 21.052242 76.763535 -0.414595 -172.728699 294.101532
[R_Toe2_01]
36 200.637817 -220.002121 -148.787384 -91.743256 32.873833 -59.182163 332.857574
37 200.637817 -220.002121 -148.787384 -91.743256 32.873833 -59.182163 332.857574
38 200.637817 -220.002121 -148.787384 -91.743256 32.873833 -59.182163 332.857574
[R_Toe3_01]
36 188.606735 -220.092957 191.126343 -73.225998 -8.456855 -73.756157 347.192566
37 188.606735 -220.092957 191.126343 -73.225998 -8.456855 -73.756157 347.192566
38 188.606735 -220.092957 191.126343 -73.225998 -8.456855 -73.756157 347.192566
[planeLockWeightRight]
36 -0.000477 0.000000 0.000000 -0.011823 -0.004379 -0.000027 0.000477
37 -0.000477 0.000000 0.000000 -0.011823 -0.004379 -0.000027 0.000477
38 -0.000477 0.000000 0.000000 -0.011823 -0.004379 -0.000027 0.000477
[R_Toe1_02]
36 413.762085 0.000477 -0.000119 0.001394 -24.707581 0.001394 413.762085
37 413.762085 0.000477 -0.000119 0.001394 -24.683527 0.001394 413.762085
38 413.762085 0.000477 -0.000119 0.001394 -24.659479 0.001394 413.762085
[R_Toe1_03]
36 464.317810 0.000000 0.001088 0.006625 69.593369 0.006625 464.317810
37 464.317810 0.000000 0.001088 0.006625 69.593369 0.006625 464.317810
38 464.317810 0.000000 0.001088 0.006625 69.593369 0.006625 464.317810
[R_Toe2_02]
36 342.234741 -0.000954 0.000238 0.001197 -67.217278 0.001197 342.234741
37 342.234741 -0.000954 0.000238 0.001197 -67.219269 0.001197 342.234741
38 342.234741 -0.000954 0.000238 0.001197 -67.221245 0.001197 342.234741
[R_Toe2_03]
36 420.210846 0.000715 -0.000268 0.008232 73.607925 0.008232 420.210846
37 420.210846 0.000715 -0.000268 0.008233 73.610008 0.008233 420.210846
38 420.210846 0.000715 -0.000268 0.008234 73.612061 0.008234 420.210846
[R_Toe3_02]
36 329.270355 -0.000477 -0.000954 0.001184 -74.518616 0.001184 329.270355
37 329.270355 -0.000477 -0.000954 0.001184 -74.518616 0.001184 329.270355
38 329.270355 -0.000477 -0.000954 0.001184 -74.518616 0.001184 329.270355
[R_Toe3_03]
36 439.137939 0.000238 0.001431 -0.011587 83.300278 -0.008085 439.137939
37 439.137939 0.000238 0.001431 -0.011587 83.300278 -0.008085 439.137939
38 439.137939 0.000238 0.001431 -0.011587 83.300278 -0.008085 439.137939
[Rear_Leg02]
36 1162.777710 -0.029802 0.005960 0.612701 -2.920501 -123.306664 1162.777710
37 1162.777710 -0.029802 0.005960 0.638611 -2.915673 -123.844170 1162.777710
38 1162.777710 -0.029802 0.005960 0.634897 -2.916484 -123.698235 1162.777710
[Rear_Leg03]
36 607.192505 -0.013351 -0.073195 0.006475 -0.002110 64.318848 607.192505
37 607.192505 -0.013351 -0.073195 0.006471 -0.002122 64.520386 607.192505
38 607.192505 -0.013351 -0.073195 0.006472 -0.002119 64.461884 607.192505
[Rear_Leg04]
36 995.874512 -0.020504 -0.011921 -0.040522 -0.015148 58.279327 995.874573
37 995.874512 -0.020504 -0.011921 -0.040574 -0.015010 58.670013 995.874573
38 995.874512 -0.020504 -0.011921 -0.040559 -0.015048 58.562256 995.874573
[Rear_Foot]
36 3096.176270 -0.067472 -0.041425 -142.885223 85.832939 49.792294 3096.176270
37 3096.176270 -0.067472 -0.041425 -143.350784 85.791367 49.364414 3096.176270
38 3096.176270 -0.067472 -0.041425 -143.807449 85.749458 48.945320 3096.176270
[planeAlignerCenter]
36 0.350077 0.966311 -838.790894 0.000009 0.000003 -179.999985 838.791565
37 0.350077 0.966311 -838.790894 0.000009 0.000003 -179.999985 838.791565
38 0.350077 0.966311 -838.790894 0.000009 0.000003 -179.999985 838.791565
[Rear_Toe1_01]
36 0.653352 83.966492 -371.173737 0.288091 41.914127 90.413170 380.553192
37 0.653352 83.966492 -371.173737 0.288091 41.914127 90.413170 380.553192
38 0.653352 83.966492 -371.173737 0.288091 41.914127 90.413170 380.553192
[Rear_Toe2_01]
36 178.200760 -294.826019 -362.060547 -7.196267 34.406261 -66.271294 499.765686
37 178.200760 -294.826019 -362.060547 -7.196267 34.406261 -66.271294 499.765686
38 178.200760 -294.826019 -362.060547 -7.196267 34.406261 -66.271294 499.765686
[Rear_Toe3_01]
36 -153.359680 -308.780914 -362.060852 3.289418 33.518005 -112.540970 499.952881
37 -153.359680 -308.780914 -362.060852 3.289418 33.518005 -112.540970 499.952881
38 -153.359680 -308.780914 -362.060852 3.289418 33.518005 -112.540970 499.952881
[planeLockWeightCenter]
36 -0.000062 0.000238 0.000000 -0.011814 -0.004373 -0.000015 0.000246
37 -0.000062 0.000238 0.000000 -0.011814 -0.004373 -0.000015 0.000246
38 -0.000062 0.000238 0.000000 -0.011814 -0.004373 -0.000015 0.000246
[Rear_Toe1_02]
36 379.707825 0.194073 0.000477 -0.000242 -31.677383 0.006934 379.707855
37 379.707825 0.194073 0.000477 -0.000242 -31.677065 0.006934 379.707855
38 379.707825 0.194073 0.000477 -0.000242 -31.676744 0.006934 379.707855
[Rear_Toe1_03]
36 500.129700 0.165701 0.000119 -0.000103 51.903168 0.007295 500.129761
37 500.129700 0.165701 0.000119 -0.000103 51.902821 0.007295 500.129761
38 500.129700 0.165701 0.000119 -0.000103 51.902481 0.007295 500.129761
[Rear_Toe2_02]
36 340.494507 0.000238 -0.000954 0.001192 -69.854523 0.001192 340.494507
37 340.494507 0.000238 -0.000954 0.001192 -69.854523 0.001192 340.494507
38 340.494507 0.000238 -0.000954 0.001192 -69.854523 0.001192 340.494507
[Rear_Toe2_03]
36 433.103577 0.000000 0.000238 0.006696 69.810326 0.006696 433.103546
37 433.103577 0.000000 0.000238 0.006696 69.810326 0.006696 433.103546
38 433.103577 0.000000 0.000238 0.006696 69.810326 0.006696 433.103546
[Rear_Toe3_02]
36 340.494141 -0.000358 -0.000477 0.008288 -67.274704 -0.009460 340.494171
37 340.494141 -0.000358 -0.000477 0.008288 -67.274704 -0.009460 340.494171
38 340.494141 -0.000358 -0.000477 0.008288 -67.274704 -0.009460 340.494171
[Rear_Toe3_03]
36 433.103577 0.001431 -0.000238 -0.000972 65.958961 -0.004547 433.103546
37 433.103577 0.001431 -0.000238 -0.000972 65.958984 -0.004547 433.103546
38 433.103577 0.001431 -0.000238 -0.000972 65.958984 -0.004547 433.103546
[Back_Bone]
36 1312.175781 -701.934692 0.000954 1.477471 0.019661 -85.915977 1488.125488
37 1312.175781 -701.934692 0.000954 1.476978 0.002587 -85.676270 1488.125488
38 1312.175781 -701.934692 0.000954 1.476979 0.001718 -85.608841 1488.125488
[Head]
36 1406.159424 809.709290 0.001431 0.029098 -1.476423 6.707076 1622.625488
37 1406.159424 809.709290 0.001431 0.010349 -1.475933 7.396123 1622.625488
38 1406.159424 809.709290 0.001431 0.000625 -1.475624 7.768024 1622.625488
[Motor_Bone]
36 1158.364380 -417.834747 0.000477 -0.093835 0.078005 -103.611694 1231.419434
37 1158.364380 -417.834747 0.000477 -0.095021 0.076557 -105.369446 1231.419434
38 1158.364380 -417.834747 0.000477 -0.095385 0.076104 -105.915695 1231.419434
[Ping_Mechanism]
36 1233.801147 -441.651001 -0.313876 0.000103 -0.000053 82.120995 1310.465942
37 1233.774170 -441.710785 -0.316192 0.000103 -0.000053 82.120995 1310.460693
38 1233.747192 -441.770599 -0.318508 0.000103 -0.000053 82.120995 1310.455444
[BN_LookIK]
36 193.241119 1380.371704 -0.002861 0.000000 89.965736 -31.038179 1393.832153
37 193.241119 1380.371704 -0.002861 0.000000 89.965736 -31.038179 1393.832153
38 193.241119 1380.371704 -0.002861 0.000000 89.965736 -31.038179 1393.832153
[bottomMouth]
36 -435.092926 615.759399 -0.000954 -0.000022 0.000016 73.527184 753.966492
37 -435.092926 615.759399 -0.000954 -0.000022 0.000016 73.527184 753.966492
38 -435.092926 615.759399 -0.000954 -0.000022 0.000016 73.527184 753.966492
[L_Mouth01]
36 554.440979 7.658243 838.222046 150.204178 23.759130 109.605339 1005.027161
37 554.440979 7.658243 838.222046 150.204178 23.759130 109.605339 1005.027161
38 554.440979 7.658243 838.222046 150.204178 23.759130 109.605339 1005.027161
[L_mouthFront]
36 551.629089 934.514771 339.150421 0.000081 2.804060 79.119301 1136.941284
37 551.629089 934.514771 339.150421 0.000081 2.804060 79.119301 1136.941284
38 551.629089 934.514771 339.150421 0.000081 2.804060 79.119301 1136.941284
[mouthGun]
36 55.332661 1627.420898 0.000000 0.000023 0.000009 -11.038128 1628.361328
37 55.332661 1627.420898 0.000000 0.000023 0.000009 -11.038128 1628.361328
38 55.332661 1627.420898 0.000000 0.000023 0.000009 -11.038128 1628.361328
[R_Mouth01]
36 554.442383 7.659197 -838.223938 29.795891 -23.759109 109.605331 1005.029541
37 554.442383 7.659197 -838.223938 29.795891 -23.759109 109.605331 1005.029541
38 554.442383 7.659197 -838.223938 29.795891 -23.759109 109.605331 1005.029541
[R_mouthFront]
36 551.629089 934.514282 -339.151367 0.000029 -2.803930 79.119133 1136.941162
37 551.629089 934.514282 -339.151367 0.000029 -2.803930 79.119133 1136.941162
38 551.629089 934.514282 -339.151367 0.000029 -2.803930 79.119133 1136.941162
[TopMouth]
36 461.269867 -56.106091 -0.008583 -0.000059 -0.000268 92.025169 464.669525
37 461.269867 -56.106091 -0.008583 -0.000059 -0.000268 92.025169 464.669525
38 461.269867 -56.106091 -0.008583 -0.000059 -0.000268 92.025169 464.669525
[weapon_bone]
36 -987.239868 1448.372803 0.001431 0.000000 89.965736 -31.038221 1752.833740
37 -987.239868 1448.372803 0.001431 0.000000 89.965736 -31.038221 1752.833740
38 -987.239868 1448.372803 0.001431 0.000000 89.965736 -31.038221 1752.833740
